<?xml version="1.0" encoding="utf-8"?>
<!-- Generator: Adobe Illustrator 27.0.0, SVG Export Plug-In . SVG Version: 6.00 Build 0)  -->
<svg version="1.1" id="Ebene_1" xmlns="http://www.w3.org/2000/svg" xmlns:xlink="http://www.w3.org/1999/xlink" x="0px" y="0px"
	 viewBox="0 0 63 63" style="enable-background:new 0 0 63 63;" xml:space="preserve">
<style type="text/css">
	.st0{fill:#58E591;}
</style>
<path class="st0" d="M31.3,45.7V0h-3l-2.9,5.6L24.2,8l-1.5,2.8l-1,1.9l-6.8,13.1l-1,1.9h0l-1.6,3l-0.5,1L10.6,34h0l-2.4,4.6L7,40.9
	L0,54.4v0c0,0,0,0,0,0c0,0,0,0,0,0.1c0,0,0,0,0,0c0,0,0,0,0,0c0,0,0,0,0,0c0,0,0,0,0.1,0.1c0,0,0,0.1,0.1,0.1
	c0.1,0.1,0.2,0.2,0.3,0.3c0,0,0.1,0.1,0.1,0.1c0.1,0.1,0.1,0.2,0.2,0.2c0.4,0.4,0.7,0.8,1.1,1.2c0,0,0,0,0,0h0c2.5-1.6,5.2-3,8-4.1
	c0.1,0,0.2-0.1,0.2-0.1c0.1,0,0.2-0.1,0.3-0.1c0.3-0.1,0.5-0.2,0.8-0.3c0.1,0,0.1,0,0.2-0.1c0.1,0,0.1-0.1,0.2-0.1h0c0,0,0,0,0,0
	c0,0,0.1,0,0.1,0c0,0,0.1,0,0.1,0c0.1,0,0.2-0.1,0.2-0.1c0.1,0,0.1,0,0.2-0.1c0,0,0,0,0,0c0,0,0,0,0,0c0.1,0,0.3-0.1,0.4-0.1
	c0.1,0,0.1,0,0.2-0.1c0.2-0.1,0.5-0.2,0.7-0.2c0.1,0,0.1,0,0.2-0.1c0.1,0,0.1,0,0.2-0.1c0.1,0,0.2-0.1,0.4-0.1
	c0.1,0,0.3-0.1,0.4-0.1c0.3-0.1,0.6-0.2,0.9-0.3c0,0,0,0,0,0c0,0,0.1,0,0.1,0c0.1,0,0.1,0,0.2,0c0,0,0.1,0,0.1,0
	c0.2-0.1,0.4-0.1,0.6-0.2c0.1,0,0.1,0,0.2-0.1c0.1,0,0.3-0.1,0.4-0.1c0.2,0,0.4-0.1,0.5-0.1c0.1,0,0.3-0.1,0.4-0.1
	c0.1,0,0.2,0,0.3-0.1c0.1,0,0.3-0.1,0.4-0.1c3-0.6,6.2-1,9.3-1.1V63h3V48.7c2.4,0.1,4.8,0.3,7.1,0.7c0.2-0.4,0.4-0.9,0.6-1.4
	c0-0.1,0.1-0.2,0.1-0.2c0-0.1,0.1-0.2,0.1-0.3c0.1-0.2,0.2-0.4,0.2-0.6c0-0.1,0.1-0.2,0.1-0.4C36.9,46,34.1,45.8,31.3,45.7z
	 M28.3,45.7c-3.1,0.1-6.2,0.4-9.2,1c-0.2,0-0.5,0.1-0.7,0.1c-0.1,0-0.2,0-0.3,0.1c-0.3,0.1-0.6,0.1-1,0.2c0,0,0,0,0,0
	c-0.1,0-0.3,0.1-0.4,0.1c0,0,0,0,0,0c-0.2,0.1-0.4,0.1-0.6,0.2c-0.2,0.1-0.4,0.1-0.6,0.2c-0.2,0.1-0.4,0.1-0.6,0.2
	c-0.2,0.1-0.4,0.1-0.6,0.2c-1.1,0.3-2.2,0.7-3.2,1.1c0,0,0,0,0,0c-2.2,0.8-4.4,1.8-6.5,2.9l3.2-6.2l1.4-2.8l2.1-4.1l1.3-2.5h0
	l1.9-3.7l0.9-1.8l1.5-3l0.7-1.3l7.3-14.1l0.6-1.2l0.7-1.3l0.8-1.6h0l0.5-0.9l0.8-1.5V45.7z"/>
</svg>
