<svg width="63" height="63" viewBox="0 0 63 63" fill="none" xmlns="http://www.w3.org/2000/svg">
<path d="M23.3447 30.414L22.2209 32.586H29.2328V30.414H23.3447ZM18.359 40.0515L16.8706 42.9282C17.058 43.5637 17.262 44.1937 17.4809 44.8174C17.6187 44.7646 17.7573 44.7135 17.8975 44.6638C18.0086 44.6229 18.1204 44.5827 18.233 44.5434C18.4141 44.4796 18.596 44.4166 18.7803 44.3551C18.8472 44.3323 18.9142 44.3103 18.9811 44.2882C19.163 44.2276 19.3465 44.1685 19.5324 44.111C19.0662 42.7849 18.674 41.4296 18.359 40.0515ZM23.3447 30.414L22.2209 32.586H29.2328V30.414H23.3447ZM18.359 40.0515L16.8706 42.9282C17.058 43.5637 17.262 44.1937 17.4809 44.8174C17.6187 44.7646 17.7573 44.7135 17.8975 44.6638C18.0086 44.6229 18.1204 44.5827 18.233 44.5434C18.4141 44.4796 18.596 44.4166 18.7803 44.3551C18.8472 44.3323 18.9142 44.3103 18.9811 44.2882C19.163 44.2276 19.3465 44.1685 19.5324 44.111C19.0662 42.7849 18.674 41.4296 18.359 40.0515ZM18.359 40.0515L16.8706 42.9282C17.058 43.5637 17.262 44.1937 17.4809 44.8174C17.6187 44.7646 17.7573 44.7135 17.8975 44.6638C18.0086 44.6229 18.1204 44.5827 18.233 44.5434C18.4141 44.4796 18.596 44.4166 18.7803 44.3551C18.8472 44.3323 18.9142 44.3103 18.9811 44.2882C19.163 44.2276 19.3465 44.1685 19.5324 44.111C19.0662 42.7849 18.674 41.4296 18.359 40.0515ZM23.3447 30.414L22.2209 32.586H29.2328V30.414H23.3447ZM18.359 40.0515L16.8706 42.9282C17.058 43.5637 17.262 44.1937 17.4809 44.8174C17.6187 44.7646 17.7573 44.7135 17.8975 44.6638C18.0086 44.6229 18.1204 44.5827 18.233 44.5434C18.4141 44.4796 18.596 44.4166 18.7803 44.3551C18.8472 44.3323 18.9142 44.3103 18.9811 44.2882C19.163 44.2276 19.3465 44.1685 19.5324 44.111C19.0662 42.7849 18.674 41.4296 18.359 40.0515ZM23.3447 30.414L22.2209 32.586H29.2328V30.414H23.3447ZM18.359 40.0515L16.8706 42.9282C17.058 43.5637 17.262 44.1937 17.4809 44.8174C17.6187 44.7646 17.7573 44.7135 17.8975 44.6638C18.0086 44.6229 18.1204 44.5827 18.233 44.5434C18.4141 44.4796 18.596 44.4166 18.7803 44.3551C18.8472 44.3323 18.9142 44.3103 18.9811 44.2882C19.163 44.2276 19.3465 44.1685 19.5324 44.111C19.0662 42.7849 18.674 41.4296 18.359 40.0515ZM23.3447 30.414L22.2209 32.586H29.2328V30.414H23.3447ZM18.359 40.0515L16.8706 42.9282C17.058 43.5637 17.262 44.1937 17.4809 44.8174C17.6187 44.7646 17.7573 44.7135 17.8975 44.6638C18.0086 44.6229 18.1204 44.5827 18.233 44.5434C18.4141 44.4796 18.596 44.4166 18.7803 44.3551C18.8472 44.3323 18.9142 44.3103 18.9811 44.2882C19.163 44.2276 19.3465 44.1685 19.5324 44.111C19.0662 42.7849 18.674 41.4296 18.359 40.0515ZM23.3447 30.414L22.2209 32.586H29.2328V30.414H23.3447ZM18.359 40.0515L16.8706 42.9282C17.058 43.5637 17.262 44.1937 17.4809 44.8174C17.6187 44.7646 17.7573 44.7135 17.8975 44.6638C18.0086 44.6229 18.1204 44.5827 18.233 44.5434C18.4141 44.4796 18.596 44.4166 18.7803 44.3551C18.8472 44.3323 18.9142 44.3103 18.9811 44.2882C19.163 44.2276 19.3465 44.1685 19.5324 44.111C19.0662 42.7849 18.674 41.4296 18.359 40.0515ZM23.3447 30.414L22.2209 32.586H29.2328V30.414H23.3447ZM18.359 40.0515L16.8706 42.9282C17.058 43.5637 17.262 44.1937 17.4809 44.8174C17.6187 44.7646 17.7573 44.7135 17.8975 44.6638C18.0086 44.6229 18.1204 44.5827 18.233 44.5434C18.4141 44.4796 18.596 44.4166 18.7803 44.3551C18.8472 44.3323 18.9142 44.3103 18.9811 44.2882C19.163 44.2276 19.3465 44.1685 19.5324 44.111C19.0662 42.7849 18.674 41.4296 18.359 40.0515ZM23.3447 30.414L22.2209 32.586H29.2328V30.414H23.3447ZM18.359 40.0515L16.8706 42.9282C17.058 43.5637 17.262 44.1937 17.4809 44.8174C17.6187 44.7646 17.7573 44.7135 17.8975 44.6638C18.0086 44.6229 18.1204 44.5827 18.233 44.5434C18.4141 44.4796 18.596 44.4166 18.7803 44.3551C18.8472 44.3323 18.9142 44.3103 18.9811 44.2882C19.163 44.2276 19.3465 44.1685 19.5324 44.111C19.0662 42.7849 18.674 41.4296 18.359 40.0515ZM18.359 40.0515L16.8706 42.9282C17.058 43.5637 17.262 44.1937 17.4809 44.8174C17.6187 44.7646 17.7573 44.7135 17.8975 44.6638C18.0086 44.6229 18.1204 44.5827 18.233 44.5434C18.4141 44.4796 18.596 44.4166 18.7803 44.3551C18.8472 44.3323 18.9142 44.3103 18.9811 44.2882C19.163 44.2276 19.3465 44.1685 19.5324 44.111C19.0662 42.7849 18.674 41.4296 18.359 40.0515ZM23.3447 30.414L22.2209 32.586H29.2328V30.414H23.3447ZM18.359 40.0515L16.8706 42.9282C17.058 43.5637 17.262 44.1937 17.4809 44.8174C17.6187 44.7646 17.7573 44.7135 17.8975 44.6638C18.0086 44.6229 18.1204 44.5827 18.233 44.5434C18.4141 44.4796 18.596 44.4166 18.7803 44.3551C18.8472 44.3323 18.9142 44.3103 18.9811 44.2882C19.163 44.2276 19.3465 44.1685 19.5324 44.111C19.0662 42.7849 18.674 41.4296 18.359 40.0515ZM18.359 40.0515L16.8706 42.9282C17.058 43.5637 17.262 44.1937 17.4809 44.8174C17.6187 44.7646 17.7573 44.7135 17.8975 44.6638C18.0086 44.6229 18.1204 44.5827 18.233 44.5434C18.4141 44.4796 18.596 44.4166 18.7803 44.3551C18.8472 44.3323 18.9142 44.3103 18.9811 44.2882C19.163 44.2276 19.3465 44.1685 19.5324 44.111C19.0662 42.7849 18.674 41.4296 18.359 40.0515ZM23.3447 30.414L22.2209 32.586H29.2328V30.414H23.3447ZM23.3447 30.414L22.2209 32.586H29.2328V30.414H23.3447ZM18.359 40.0515L16.8706 42.9282C17.058 43.5637 17.262 44.1937 17.4809 44.8174C17.6187 44.7646 17.7573 44.7135 17.8975 44.6638C18.0086 44.6229 18.1204 44.5827 18.233 44.5434C18.4141 44.4796 18.596 44.4166 18.7803 44.3551C18.8472 44.3323 18.9142 44.3103 18.9811 44.2882C19.163 44.2276 19.3465 44.1685 19.5324 44.111C19.0662 42.7849 18.674 41.4296 18.359 40.0515ZM18.359 40.0515L16.8706 42.9282C17.058 43.5637 17.262 44.1937 17.4809 44.8174C17.6187 44.7646 17.7573 44.7135 17.8975 44.6638C18.0086 44.6229 18.1204 44.5827 18.233 44.5434C18.4141 44.4796 18.596 44.4166 18.7803 44.3551C18.8472 44.3323 18.9142 44.3103 18.9811 44.2882C19.163 44.2276 19.3465 44.1685 19.5324 44.111C19.0662 42.7849 18.674 41.4296 18.359 40.0515ZM23.3447 30.414L22.2209 32.586H29.2328V30.414H23.3447ZM23.3447 30.414L22.2209 32.586H29.2328V30.414H23.3447ZM18.359 40.0515L16.8706 42.9282C17.058 43.5637 17.262 44.1937 17.4809 44.8174C17.6187 44.7646 17.7573 44.7135 17.8975 44.6638C18.0086 44.6229 18.1204 44.5827 18.233 44.5434C18.4141 44.4796 18.596 44.4166 18.7803 44.3551C18.8472 44.3323 18.9142 44.3103 18.9811 44.2882C19.163 44.2276 19.3465 44.1685 19.5324 44.111C19.0662 42.7849 18.674 41.4296 18.359 40.0515ZM18.359 40.0515L16.8706 42.9282C17.058 43.5637 17.262 44.1937 17.4809 44.8174C17.6187 44.7646 17.7573 44.7135 17.8975 44.6638C18.0086 44.6229 18.1204 44.5827 18.233 44.5434C18.4141 44.4796 18.596 44.4166 18.7803 44.3551C18.8472 44.3323 18.9142 44.3103 18.9811 44.2882C19.163 44.2276 19.3465 44.1685 19.5324 44.111C19.0662 42.7849 18.674 41.4296 18.359 40.0515ZM23.3447 30.414L22.2209 32.586H29.2328V30.414H23.3447ZM23.3447 30.414L22.2209 32.586H29.2328V30.414H23.3447ZM18.359 40.0515L16.8706 42.9282C17.058 43.5637 17.262 44.1937 17.4809 44.8174C17.6187 44.7646 17.7573 44.7135 17.8975 44.6638C18.0086 44.6229 18.1204 44.5827 18.233 44.5434C18.4141 44.4796 18.596 44.4166 18.7803 44.3551C18.8472 44.3323 18.9142 44.3103 18.9811 44.2882C19.163 44.2276 19.3465 44.1685 19.5324 44.111C19.0662 42.7849 18.674 41.4296 18.359 40.0515ZM18.359 40.0515L16.8706 42.9282C17.058 43.5637 17.262 44.1937 17.4809 44.8174C17.6187 44.7646 17.7573 44.7135 17.8975 44.6638C18.0086 44.6229 18.1204 44.5827 18.233 44.5434C18.4141 44.4796 18.596 44.4166 18.7803 44.3551C18.8472 44.3323 18.9142 44.3103 18.9811 44.2882C19.163 44.2276 19.3465 44.1685 19.5324 44.111C19.0662 42.7849 18.674 41.4296 18.359 40.0515ZM23.3447 30.414L22.2209 32.586H29.2328V30.414H23.3447ZM23.3447 30.414L22.2209 32.586H29.2328V30.414H23.3447ZM18.359 40.0515L16.8706 42.9282C17.058 43.5637 17.262 44.1937 17.4809 44.8174C17.6187 44.7646 17.7573 44.7135 17.8975 44.6638C18.0086 44.6229 18.1204 44.5827 18.233 44.5434C18.4141 44.4796 18.596 44.4166 18.7803 44.3551C18.8472 44.3323 18.9142 44.3103 18.9811 44.2882C19.163 44.2276 19.3465 44.1685 19.5324 44.111C19.0662 42.7849 18.674 41.4296 18.359 40.0515ZM18.359 40.0515L16.8706 42.9282C17.058 43.5637 17.262 44.1937 17.4809 44.8174C17.6187 44.7646 17.7573 44.7135 17.8975 44.6638C18.0086 44.6229 18.1204 44.5827 18.233 44.5434C18.4141 44.4796 18.596 44.4166 18.7803 44.3551C18.8472 44.3323 18.9142 44.3103 18.9811 44.2882C19.163 44.2276 19.3465 44.1685 19.5324 44.111C19.0662 42.7849 18.674 41.4296 18.359 40.0515ZM23.3447 30.414L22.2209 32.586H29.2328V30.414H23.3447ZM23.3447 30.414L22.2209 32.586H29.2328V30.414H23.3447ZM18.359 40.0515L16.8706 42.9282C17.058 43.5637 17.262 44.1937 17.4809 44.8174C17.6187 44.7646 17.7573 44.7135 17.8975 44.6638C18.0086 44.6229 18.1204 44.5827 18.233 44.5434C18.4141 44.4796 18.596 44.4166 18.7803 44.3551C18.8472 44.3323 18.9142 44.3103 18.9811 44.2882C19.163 44.2276 19.3465 44.1685 19.5324 44.111C19.0662 42.7849 18.674 41.4296 18.359 40.0515ZM18.359 40.0515L16.8706 42.9282C17.058 43.5637 17.262 44.1937 17.4809 44.8174C17.6187 44.7646 17.7573 44.7135 17.8975 44.6638C18.0086 44.6229 18.1204 44.5827 18.233 44.5434C18.4141 44.4796 18.596 44.4166 18.7803 44.3551C18.8472 44.3323 18.9142 44.3103 18.9811 44.2882C19.163 44.2276 19.3465 44.1685 19.5324 44.111C19.0662 42.7849 18.674 41.4296 18.359 40.0515ZM23.3447 30.414L22.2209 32.586H29.2328V30.414H23.3447ZM23.3447 30.414L22.2209 32.586H29.2328V30.414H23.3447ZM18.359 40.0515L16.8706 42.9282C17.058 43.5637 17.262 44.1937 17.4809 44.8174C17.6187 44.7646 17.7573 44.7135 17.8975 44.6638C18.0086 44.6229 18.1204 44.5827 18.233 44.5434C18.4141 44.4796 18.596 44.4166 18.7803 44.3551C18.8472 44.3323 18.9142 44.3103 18.9811 44.2882C19.163 44.2276 19.3465 44.1685 19.5324 44.111C19.0662 42.7849 18.674 41.4296 18.359 40.0515ZM18.359 40.0515L16.8706 42.9282C17.058 43.5637 17.262 44.1937 17.4809 44.8174C17.6187 44.7646 17.7573 44.7135 17.8975 44.6638C18.0086 44.6229 18.1204 44.5827 18.233 44.5434C18.4141 44.4796 18.596 44.4166 18.7803 44.3551C18.8472 44.3323 18.9142 44.3103 18.9811 44.2882C19.163 44.2276 19.3465 44.1685 19.5324 44.111C19.0662 42.7849 18.674 41.4296 18.359 40.0515ZM23.3447 30.414L22.2209 32.586H29.2328V30.414H23.3447ZM23.3447 30.414L22.2209 32.586H29.2328V30.414H23.3447ZM16.8706 42.9282C17.058 43.5637 17.262 44.1937 17.4809 44.8174C17.6187 44.7646 17.7573 44.7135 17.8975 44.6638C18.0086 44.6229 18.1204 44.5827 18.233 44.5434C18.4141 44.4796 18.596 44.4166 18.7803 44.3551C18.8472 44.3323 18.9142 44.3103 18.9811 44.2882C19.163 44.2276 19.3465 44.1685 19.5324 44.111C19.0662 42.7849 18.674 41.4296 18.359 40.0515L16.8706 42.9282ZM54.4493 9.95636V9.95479C54.4454 9.94849 54.4383 9.94613 54.4352 9.94061C48.9187 4.07689 41.1886 0.322875 32.5915 0.02835V0.026775L31.9772 0.011025C31.8181 0.0055125 31.6599 0 31.5 0C31.3401 0 31.1819 0.0055125 31.0228 0.011025L30.4117 0.026775V0.02835C21.813 0.322875 14.0837 4.07689 8.56721 9.94061C8.56249 9.94613 8.55619 9.94849 8.55304 9.95479C8.55304 9.95479 8.55304 9.95636 8.55146 9.95715C3.25395 15.5949 0 23.1722 0 31.5C0 39.8278 3.00668 46.8169 7.94273 52.379C7.94903 52.3892 7.94902 52.3995 7.95611 52.4097C7.9758 52.4365 8.00415 52.4499 8.02462 52.4743C13.571 58.6751 21.5287 62.6685 30.4093 62.9732H30.4109L31.022 62.9906C31.1818 62.9945 31.3401 63 31.5 63C31.6599 63 31.8181 62.9945 31.9772 62.989L32.5883 62.9732V62.9716C41.48 62.6669 49.4463 58.6648 54.9927 52.4522C55.0069 52.4333 55.0297 52.4278 55.0423 52.4081C55.051 52.3995 55.051 52.3892 55.0573 52.379C59.9933 46.8169 63 39.5042 63 31.5C63 23.4958 59.746 15.5949 54.4493 9.95636ZM60.8005 30.414H47.7627C47.6304 25.4607 46.6137 20.6506 44.7757 16.1902C47.7768 15.1381 50.6544 13.7308 53.3563 11.9731C57.7734 16.91 60.5406 23.3462 60.8005 30.414ZM51.8167 10.3785C49.314 11.9668 46.6594 13.2442 43.8929 14.1986C41.806 9.82721 38.9104 5.84404 35.3249 2.43023C41.6855 3.26183 47.4083 6.13777 51.8167 10.3785ZM27.6767 2.43023C24.0896 5.84404 21.194 9.82721 19.1071 14.1986C16.3406 13.2442 13.686 11.9668 11.1849 10.3785C15.5917 6.13777 21.3161 3.26183 27.6767 2.43023ZM9.64372 11.9731C12.3456 13.7308 15.2232 15.1381 18.2243 16.1902C16.3863 20.6506 15.3696 25.4607 15.2373 30.414H2.19949C2.45936 23.3462 5.22664 16.91 9.64372 11.9731ZM32.586 60.128V57.2591H30.414V60.128C26.5395 56.748 23.4439 52.6924 21.2444 48.2013C20.5246 48.4021 19.8269 48.621 19.1512 48.8557C21.2341 53.2027 24.1069 57.1717 27.6751 60.5698C20.994 59.6957 15.0145 56.5677 10.5265 51.9703C10.5273 51.9703 10.5273 51.9695 10.5281 51.9695C10.0068 51.4363 9.51536 50.893 9.05153 50.3425C9.05074 50.3425 9.05074 50.3433 9.04995 50.3433C8.94757 50.2212 8.84678 50.0992 8.74755 49.9755C8.72865 49.9519 8.70975 49.9291 8.69085 49.9054C8.62313 49.822 8.5554 49.7377 8.48846 49.6535C8.42231 49.5692 8.35616 49.4857 8.2908 49.4015C4.66672 44.7135 2.4318 38.9017 2.19949 32.586H15.2373C15.2728 33.9263 15.3752 35.2564 15.5413 36.5715L17.2352 33.316L17.4219 32.9577C17.4179 32.8332 17.4132 32.7096 17.41 32.586H17.6148L18.7456 30.414H17.41C17.5431 25.6906 18.5338 21.1105 20.3057 16.8635C21.9185 17.3305 23.562 17.6951 25.2283 17.955L26.2907 15.9138C24.5708 15.6783 22.8761 15.3263 21.2129 14.8593C23.4139 10.343 26.523 6.26614 30.414 2.87201V9.07909H32.586V2.87201C36.477 6.26614 39.586 10.343 41.7871 14.8593C39.1828 15.5909 36.4998 16.0406 33.7672 16.202V18.3763C36.8125 18.2078 39.8026 17.703 42.6959 16.8635C44.467 21.1105 45.4576 25.6906 45.5915 30.414H33.7672V32.586H45.5899C45.4679 36.9519 44.6087 41.1933 43.0786 45.1647C41.9635 44.8284 40.8342 44.5426 39.6916 44.3071C39.4317 45.0111 39.1553 45.6947 38.8647 46.3585C40.0026 46.5806 41.1272 46.8555 42.236 47.1823C40.016 52.0805 36.751 56.4945 32.586 60.128ZM35.3249 60.5698C39.1632 56.9158 42.1958 52.6003 44.3087 47.8635C47.1673 48.8904 49.9023 50.263 52.4735 51.9703C47.9855 56.5677 42.006 59.6957 35.3249 60.5698ZM53.9501 50.3433C51.182 48.473 48.2289 46.9744 45.1395 45.8561C46.7413 41.6651 47.6398 37.1905 47.7627 32.586H60.8005C60.5524 39.3317 58.0206 45.5025 53.9501 50.3433ZM22.2209 32.586H29.2328V30.414H23.3447L22.2209 32.586ZM16.8706 42.9282C17.058 43.5637 17.262 44.1937 17.4809 44.8174C17.6187 44.7646 17.7573 44.7135 17.8975 44.6638C18.0086 44.6229 18.1204 44.5827 18.233 44.5434C18.4141 44.4796 18.596 44.4166 18.7803 44.3551C18.8472 44.3323 18.9142 44.3103 18.9811 44.2882C19.163 44.2276 19.3465 44.1685 19.5324 44.111C19.0662 42.7849 18.674 41.4296 18.359 40.0515L16.8706 42.9282ZM18.359 40.0515L16.8706 42.9282C17.058 43.5637 17.262 44.1937 17.4809 44.8174C17.6187 44.7646 17.7573 44.7135 17.8975 44.6638C18.0086 44.6229 18.1204 44.5827 18.233 44.5434C18.4141 44.4796 18.596 44.4166 18.7803 44.3551C18.8472 44.3323 18.9142 44.3103 18.9811 44.2882C19.163 44.2276 19.3465 44.1685 19.5324 44.111C19.0662 42.7849 18.674 41.4296 18.359 40.0515ZM23.3447 30.414L22.2209 32.586H29.2328V30.414H23.3447ZM23.3447 30.414L22.2209 32.586H29.2328V30.414H23.3447ZM18.359 40.0515L16.8706 42.9282C17.058 43.5637 17.262 44.1937 17.4809 44.8174C17.6187 44.7646 17.7573 44.7135 17.8975 44.6638C18.0086 44.6229 18.1204 44.5827 18.233 44.5434C18.4141 44.4796 18.596 44.4166 18.7803 44.3551C18.8472 44.3323 18.9142 44.3103 18.9811 44.2882C19.163 44.2276 19.3465 44.1685 19.5324 44.111C19.0662 42.7849 18.674 41.4296 18.359 40.0515ZM18.359 40.0515L16.8706 42.9282C17.058 43.5637 17.262 44.1937 17.4809 44.8174C17.6187 44.7646 17.7573 44.7135 17.8975 44.6638C18.0086 44.6229 18.1204 44.5827 18.233 44.5434C18.4141 44.4796 18.596 44.4166 18.7803 44.3551C18.8472 44.3323 18.9142 44.3103 18.9811 44.2882C19.163 44.2276 19.3465 44.1685 19.5324 44.111C19.0662 42.7849 18.674 41.4296 18.359 40.0515ZM23.3447 30.414L22.2209 32.586H29.2328V30.414H23.3447ZM23.3447 30.414L22.2209 32.586H29.2328V30.414H23.3447ZM18.359 40.0515L16.8706 42.9282C17.058 43.5637 17.262 44.1937 17.4809 44.8174C17.6187 44.7646 17.7573 44.7135 17.8975 44.6638C18.0086 44.6229 18.1204 44.5827 18.233 44.5434C18.4141 44.4796 18.596 44.4166 18.7803 44.3551C18.8472 44.3323 18.9142 44.3103 18.9811 44.2882C19.163 44.2276 19.3465 44.1685 19.5324 44.111C19.0662 42.7849 18.674 41.4296 18.359 40.0515ZM18.359 40.0515L16.8706 42.9282C17.058 43.5637 17.262 44.1937 17.4809 44.8174C17.6187 44.7646 17.7573 44.7135 17.8975 44.6638C18.0086 44.6229 18.1204 44.5827 18.233 44.5434C18.4141 44.4796 18.596 44.4166 18.7803 44.3551C18.8472 44.3323 18.9142 44.3103 18.9811 44.2882C19.163 44.2276 19.3465 44.1685 19.5324 44.111C19.0662 42.7849 18.674 41.4296 18.359 40.0515ZM23.3447 30.414L22.2209 32.586H29.2328V30.414H23.3447ZM23.3447 30.414L22.2209 32.586H29.2328V30.414H23.3447ZM18.359 40.0515L16.8706 42.9282C17.058 43.5637 17.262 44.1937 17.4809 44.8174C17.6187 44.7646 17.7573 44.7135 17.8975 44.6638C18.0086 44.6229 18.1204 44.5827 18.233 44.5434C18.4141 44.4796 18.596 44.4166 18.7803 44.3551C18.8472 44.3323 18.9142 44.3103 18.9811 44.2882C19.163 44.2276 19.3465 44.1685 19.5324 44.111C19.0662 42.7849 18.674 41.4296 18.359 40.0515ZM18.359 40.0515L16.8706 42.9282C17.058 43.5637 17.262 44.1937 17.4809 44.8174C17.6187 44.7646 17.7573 44.7135 17.8975 44.6638C18.0086 44.6229 18.1204 44.5827 18.233 44.5434C18.4141 44.4796 18.596 44.4166 18.7803 44.3551C18.8472 44.3323 18.9142 44.3103 18.9811 44.2882C19.163 44.2276 19.3465 44.1685 19.5324 44.111C19.0662 42.7849 18.674 41.4296 18.359 40.0515ZM23.3447 30.414L22.2209 32.586H29.2328V30.414H23.3447ZM23.3447 30.414L22.2209 32.586H29.2328V30.414H23.3447ZM18.359 40.0515L16.8706 42.9282C17.058 43.5637 17.262 44.1937 17.4809 44.8174C17.6187 44.7646 17.7573 44.7135 17.8975 44.6638C18.0086 44.6229 18.1204 44.5827 18.233 44.5434C18.4141 44.4796 18.596 44.4166 18.7803 44.3551C18.8472 44.3323 18.9142 44.3103 18.9811 44.2882C19.163 44.2276 19.3465 44.1685 19.5324 44.111C19.0662 42.7849 18.674 41.4296 18.359 40.0515ZM18.359 40.0515L16.8706 42.9282C17.058 43.5637 17.262 44.1937 17.4809 44.8174C17.6187 44.7646 17.7573 44.7135 17.8975 44.6638C18.0086 44.6229 18.1204 44.5827 18.233 44.5434C18.4141 44.4796 18.596 44.4166 18.7803 44.3551C18.8472 44.3323 18.9142 44.3103 18.9811 44.2882C19.163 44.2276 19.3465 44.1685 19.5324 44.111C19.0662 42.7849 18.674 41.4296 18.359 40.0515ZM23.3447 30.414L22.2209 32.586H29.2328V30.414H23.3447ZM23.3447 30.414L22.2209 32.586H29.2328V30.414H23.3447ZM18.359 40.0515L16.8706 42.9282C17.058 43.5637 17.262 44.1937 17.4809 44.8174C17.6187 44.7646 17.7573 44.7135 17.8975 44.6638C18.0086 44.6229 18.1204 44.5827 18.233 44.5434C18.4141 44.4796 18.596 44.4166 18.7803 44.3551C18.8472 44.3323 18.9142 44.3103 18.9811 44.2882C19.163 44.2276 19.3465 44.1685 19.5324 44.111C19.0662 42.7849 18.674 41.4296 18.359 40.0515ZM18.359 40.0515L16.8706 42.9282C17.058 43.5637 17.262 44.1937 17.4809 44.8174C17.6187 44.7646 17.7573 44.7135 17.8975 44.6638C18.0086 44.6229 18.1204 44.5827 18.233 44.5434C18.4141 44.4796 18.596 44.4166 18.7803 44.3551C18.8472 44.3323 18.9142 44.3103 18.9811 44.2882C19.163 44.2276 19.3465 44.1685 19.5324 44.111C19.0662 42.7849 18.674 41.4296 18.359 40.0515ZM23.3447 30.414L22.2209 32.586H29.2328V30.414H23.3447ZM23.3447 30.414L22.2209 32.586H29.2328V30.414H23.3447ZM18.359 40.0515L16.8706 42.9282C17.058 43.5637 17.262 44.1937 17.4809 44.8174C17.6187 44.7646 17.7573 44.7135 17.8975 44.6638C18.0086 44.6229 18.1204 44.5827 18.233 44.5434C18.4141 44.4796 18.596 44.4166 18.7803 44.3551C18.8472 44.3323 18.9142 44.3103 18.9811 44.2882C19.163 44.2276 19.3465 44.1685 19.5324 44.111C19.0662 42.7849 18.674 41.4296 18.359 40.0515ZM18.359 40.0515L16.8706 42.9282C17.058 43.5637 17.262 44.1937 17.4809 44.8174C17.6187 44.7646 17.7573 44.7135 17.8975 44.6638C18.0086 44.6229 18.1204 44.5827 18.233 44.5434C18.4141 44.4796 18.596 44.4166 18.7803 44.3551C18.8472 44.3323 18.9142 44.3103 18.9811 44.2882C19.163 44.2276 19.3465 44.1685 19.5324 44.111C19.0662 42.7849 18.674 41.4296 18.359 40.0515ZM23.3447 30.414L22.2209 32.586H29.2328V30.414H23.3447ZM18.359 40.0515L16.8706 42.9282C17.058 43.5637 17.262 44.1937 17.4809 44.8174C17.6187 44.7646 17.7573 44.7135 17.8975 44.6638C18.0086 44.6229 18.1204 44.5827 18.233 44.5434C18.4141 44.4796 18.596 44.4166 18.7803 44.3551C18.8472 44.3323 18.9142 44.3103 18.9811 44.2882C19.163 44.2276 19.3465 44.1685 19.5324 44.111C19.0662 42.7849 18.674 41.4296 18.359 40.0515ZM18.359 40.0515L16.8706 42.9282C17.058 43.5637 17.262 44.1937 17.4809 44.8174C17.6187 44.7646 17.7573 44.7135 17.8975 44.6638C18.0086 44.6229 18.1204 44.5827 18.233 44.5434C18.4141 44.4796 18.596 44.4166 18.7803 44.3551C18.8472 44.3323 18.9142 44.3103 18.9811 44.2882C19.163 44.2276 19.3465 44.1685 19.5324 44.111C19.0662 42.7849 18.674 41.4296 18.359 40.0515ZM23.3447 30.414L22.2209 32.586H29.2328V30.414H23.3447ZM18.359 40.0515L16.8706 42.9282C17.058 43.5637 17.262 44.1937 17.4809 44.8174C17.6187 44.7646 17.7573 44.7135 17.8975 44.6638C18.0086 44.6229 18.1204 44.5827 18.233 44.5434C18.4141 44.4796 18.596 44.4166 18.7803 44.3551C18.8472 44.3323 18.9142 44.3103 18.9811 44.2882C19.163 44.2276 19.3465 44.1685 19.5324 44.111C19.0662 42.7849 18.674 41.4296 18.359 40.0515ZM18.359 40.0515L16.8706 42.9282C17.058 43.5637 17.262 44.1937 17.4809 44.8174C17.6187 44.7646 17.7573 44.7135 17.8975 44.6638C18.0086 44.6229 18.1204 44.5827 18.233 44.5434C18.4141 44.4796 18.596 44.4166 18.7803 44.3551C18.8472 44.3323 18.9142 44.3103 18.9811 44.2882C19.163 44.2276 19.3465 44.1685 19.5324 44.111C19.0662 42.7849 18.674 41.4296 18.359 40.0515ZM23.3447 30.414L22.2209 32.586H29.2328V30.414H23.3447ZM18.359 40.0515L16.8706 42.9282C17.058 43.5637 17.262 44.1937 17.4809 44.8174C17.6187 44.7646 17.7573 44.7135 17.8975 44.6638C18.0086 44.6229 18.1204 44.5827 18.233 44.5434C18.4141 44.4796 18.596 44.4166 18.7803 44.3551C18.8472 44.3323 18.9142 44.3103 18.9811 44.2882C19.163 44.2276 19.3465 44.1685 19.5324 44.111C19.0662 42.7849 18.674 41.4296 18.359 40.0515ZM23.3447 30.414L22.2209 32.586H29.2328V30.414H23.3447ZM18.359 40.0515L16.8706 42.9282C17.058 43.5637 17.262 44.1937 17.4809 44.8174C17.6187 44.7646 17.7573 44.7135 17.8975 44.6638C18.0086 44.6229 18.1204 44.5827 18.233 44.5434C18.4141 44.4796 18.596 44.4166 18.7803 44.3551C18.8472 44.3323 18.9142 44.3103 18.9811 44.2882C19.163 44.2276 19.3465 44.1685 19.5324 44.111C19.0662 42.7849 18.674 41.4296 18.359 40.0515ZM23.3447 30.414L22.2209 32.586H29.2328V30.414H23.3447ZM18.359 40.0515L16.8706 42.9282C17.058 43.5637 17.262 44.1937 17.4809 44.8174C17.6187 44.7646 17.7573 44.7135 17.8975 44.6638C18.0086 44.6229 18.1204 44.5827 18.233 44.5434C18.4141 44.4796 18.596 44.4166 18.7803 44.3551C18.8472 44.3323 18.9142 44.3103 18.9811 44.2882C19.163 44.2276 19.3465 44.1685 19.5324 44.111C19.0662 42.7849 18.674 41.4296 18.359 40.0515ZM23.3447 30.414L22.2209 32.586H29.2328V30.414H23.3447ZM18.359 40.0515L16.8706 42.9282C17.058 43.5637 17.262 44.1937 17.4809 44.8174C17.6187 44.7646 17.7573 44.7135 17.8975 44.6638C18.0086 44.6229 18.1204 44.5827 18.233 44.5434C18.4141 44.4796 18.596 44.4166 18.7803 44.3551C18.8472 44.3323 18.9142 44.3103 18.9811 44.2882C19.163 44.2276 19.3465 44.1685 19.5324 44.111C19.0662 42.7849 18.674 41.4296 18.359 40.0515ZM23.3447 30.414L22.2209 32.586H29.2328V30.414H23.3447ZM18.359 40.0515L16.8706 42.9282C17.058 43.5637 17.262 44.1937 17.4809 44.8174C17.6187 44.7646 17.7573 44.7135 17.8975 44.6638C18.0086 44.6229 18.1204 44.5827 18.233 44.5434C18.4141 44.4796 18.596 44.4166 18.7803 44.3551C18.8472 44.3323 18.9142 44.3103 18.9811 44.2882C19.163 44.2276 19.3465 44.1685 19.5324 44.111C19.0662 42.7849 18.674 41.4296 18.359 40.0515ZM23.3447 30.414L22.2209 32.586H29.2328V30.414H23.3447Z" fill="white"/>
<path d="M32.586 43.4897V10.2603H30.4141L28.2902 14.3419L27.4019 16.0492L26.3293 18.1109L25.6087 19.4945L20.6412 29.0414L19.9277 30.414H19.9269L18.7969 32.5859L18.4173 33.316L17.5526 34.9784H17.5518L15.8036 38.3394L14.9302 40.0176L9.82251 49.8338V49.8353C9.82251 49.8353 9.82251 49.8369 9.82487 49.8393C9.83432 49.8519 9.84535 49.8645 9.85558 49.8779C9.86188 49.885 9.86897 49.8944 9.87685 49.9039C9.88472 49.9133 9.89417 49.9243 9.90283 49.9354C9.90756 49.9424 9.91307 49.9487 9.91937 49.9558C9.93197 49.9716 9.94615 49.9889 9.9619 50.007C9.97686 50.0251 9.9934 50.0456 10.0099 50.0661C10.0666 50.1346 10.1336 50.2157 10.206 50.3031C10.2352 50.3378 10.2651 50.374 10.2958 50.411C10.3423 50.4669 10.3903 50.5236 10.4383 50.5803C10.6974 50.8827 10.9667 51.1835 11.2447 51.4836C11.2495 51.4875 11.2534 51.4922 11.2573 51.4962H11.2589C13.1119 50.3244 15.0476 49.3235 17.0502 48.4974C17.1085 48.4722 17.1667 48.4486 17.225 48.4249C17.2919 48.3966 17.3589 48.3698 17.4258 48.343C17.6077 48.269 17.792 48.1966 17.9779 48.1257C18.0227 48.1084 18.0684 48.091 18.1133 48.0737C18.1661 48.0524 18.2196 48.0328 18.2732 48.0131H18.274C18.274 48.0131 18.2787 48.0115 18.281 48.0099C18.2999 48.0028 18.3188 47.9957 18.3377 47.9887C18.3708 47.9768 18.4031 47.965 18.4362 47.9524C18.4937 47.9312 18.5504 47.9099 18.6079 47.8894C18.6543 47.8721 18.7008 47.8556 18.7472 47.8382C18.7583 47.8343 18.7693 47.8304 18.7803 47.8272C18.7819 47.8256 18.7843 47.8249 18.7858 47.8249C18.8819 47.7902 18.978 47.7563 19.0748 47.7225C19.1189 47.7067 19.1638 47.6918 19.2079 47.6768C19.3835 47.6154 19.5607 47.5563 19.7395 47.498C19.7844 47.4831 19.8293 47.4689 19.8749 47.4539C19.9198 47.439 19.9655 47.4248 20.0112 47.4106C20.0986 47.3823 20.186 47.3547 20.2742 47.3279C20.3695 47.298 20.4656 47.2681 20.5624 47.2397C20.7869 47.172 21.0129 47.1067 21.2413 47.0429C21.2515 47.0389 21.2625 47.0358 21.2735 47.0334C21.3027 47.0255 21.3326 47.0169 21.3625 47.009C21.4027 46.9972 21.4436 46.9862 21.4838 46.9759C21.5059 46.9688 21.5279 46.9633 21.55 46.9578C21.6996 46.9169 21.8508 46.8775 22.002 46.8389C22.054 46.8247 22.1059 46.8121 22.1587 46.7995C22.2524 46.7751 22.3461 46.7523 22.4398 46.7294C22.5698 46.6979 22.7005 46.6664 22.8312 46.6365C22.9281 46.6145 23.0242 46.5924 23.121 46.5719C23.2021 46.5538 23.2825 46.5357 23.3628 46.5192C23.4549 46.4979 23.5463 46.479 23.6376 46.4601C25.8521 45.9939 28.1169 45.727 30.4141 45.6616V56.0779H32.586V45.6616C34.3374 45.7112 36.0707 45.8782 37.7764 46.1609C37.9158 45.8364 38.052 45.508 38.1843 45.1741C38.2079 45.1143 38.2316 45.0544 38.2552 44.9946C38.282 44.9269 38.3087 44.8591 38.3347 44.7906C38.3899 44.6457 38.445 44.5 38.4993 44.3536C38.5316 44.2677 38.5623 44.1819 38.5938 44.096C36.6227 43.7456 34.6162 43.5432 32.586 43.4897ZM30.4141 43.4897C28.1602 43.5495 25.9348 43.7921 23.7542 44.2157C23.5864 44.2488 23.4195 44.2827 23.2517 44.3173C23.1683 44.3347 23.0848 44.352 23.0013 44.3701C22.7651 44.4205 22.5296 44.474 22.2941 44.5292C22.2831 44.5307 22.2713 44.5339 22.2603 44.537C22.1689 44.5575 22.0784 44.5796 21.9878 44.6016C21.976 44.6048 21.9642 44.6071 21.9532 44.6103C21.802 44.6473 21.6515 44.6843 21.5027 44.7229C21.3531 44.7615 21.205 44.8001 21.0578 44.8402C20.9144 44.8788 20.7727 44.9174 20.6317 44.9576C20.4813 44.9993 20.3325 45.0426 20.1844 45.0859C19.3796 45.323 18.6047 45.5797 17.8589 45.8514C17.8589 45.853 17.8589 45.8545 17.8605 45.8561C16.2328 46.4452 14.6428 47.1405 13.0977 47.9398L15.4169 43.4566L16.4611 41.4374L18.022 38.4197L18.974 36.5786H18.9748L20.3632 33.8932L21.0397 32.5859L22.1634 30.414L22.6446 29.4832L27.9673 19.1929L28.4177 18.3227L28.9052 17.3793L29.5069 16.2162H29.5076L29.8612 15.5326L30.4141 14.4632V43.4897Z" fill="#58E591"/>
</svg>
