<svg width="34" height="34" viewBox="0 0 34 34" fill="none" xmlns="http://www.w3.org/2000/svg">
<path d="M16.539 3.01184C8.93106 3.01184 2.7565 9.1864 2.7565 16.7943C2.7565 24.4023 8.93106 30.5769 16.539 30.5769H23.4303V27.8204H16.539C10.5574 27.8204 5.513 22.776 5.513 16.7943C5.513 10.8127 10.5574 5.76834 16.539 5.76834C22.5206 5.76834 27.565 10.8127 27.565 16.7943V18.7652C27.565 19.8541 26.5865 20.9291 25.4976 20.9291C24.4088 20.9291 23.4303 19.8541 23.4303 18.7652V16.7943C23.4303 12.9904 20.343 9.90309 16.539 9.90309C12.735 9.90309 9.64775 12.9904 9.64775 16.7943C9.64775 20.5983 12.735 23.6856 16.539 23.6856C18.441 23.6856 20.1776 22.9138 21.418 21.6596C22.3139 22.8862 23.8575 23.6856 25.4976 23.6856C28.2128 23.6856 30.3215 21.4804 30.3215 18.7652V16.7943C30.3215 9.1864 24.147 3.01184 16.539 3.01184ZM16.539 20.9291C14.2511 20.9291 12.4043 19.0822 12.4043 16.7943C12.4043 14.5065 14.2511 12.6596 16.539 12.6596C18.8269 12.6596 20.6738 14.5065 20.6738 16.7943C20.6738 19.0822 18.8269 20.9291 16.539 20.9291Z" fill="#C7C7C7"/>
</svg>
